<svg id="Layer_1" data-name="Layer 1" xmlns="http://www.w3.org/2000/svg" viewBox="0 0 400 300" width="406" height="306" class="illustration styles_illustrationTablet__1DWOa"><path d="M139.11,43.31c-50.1,14-87.19,57.2-91.6,109-3.67,43.09,15.88,86.11,108.8,85.82C342.15,237.58,353.05,203,337,134.26,323,74.37,266,7.89,139.11,43.31Z" fill="#e6e6e6" opacity="0.63"></path><polygon points="171.27 164.21 143.32 142.94 129.28 134.26 122.39 122.29 125.96 134 112.43 132.12 124.94 138.09 118.81 144.72 129.54 140.11 141.85 146.6 169.62 170.9 171.27 164.21" fill="#c1c1c1"></polygon><polygon points="216.2 162.53 244.14 141.26 258.18 132.58 265.08 120.61 261.5 132.32 275.04 130.44 262.52 136.41 268.65 143.05 257.93 138.43 245.62 144.92 217.84 169.22 216.2 162.53" fill="#c1c1c1"></polygon><circle cx="285.47" cy="63.82" r="39.09" fill="#ffd200"></circle><path d="M189.93,239.51s24.88-17.31,50.67-10.08,26.81,25.61,54.13,15.91c12.82-4.55,22.83-.06,29.84,6A8.88,8.88,0,0,1,318.82,267l-92.39-.2S186.23,261.77,189.93,239.51Z" fill="#ffc107"></path><path d="M189.93,239.51s24.88-17.31,50.67-10.08,26.81,25.61,54.13,15.91c12.82-4.55,22.83-.06,29.84,6A8.88,8.88,0,0,1,318.82,267l-92.39-.2S186.23,261.77,189.93,239.51Z" fill="#fff" opacity="0.49"></path><circle cx="192.36" cy="216.74" r="45.83" fill="#ffc107"></circle><circle cx="192.11" cy="166.63" r="30.3" fill="#ffc107"></circle><circle cx="192.11" cy="126.53" r="20.84" fill="#ffc107"></circle><path d="M219.43,179.75a30.31,30.31,0,0,0-11.92-39.21,20.84,20.84,0,1,0-30.8,0A30.28,30.28,0,0,0,164.92,180a45.84,45.84,0,1,0,54.51-.27Z" fill="#fff"></path><rect x="164.19" y="116.42" width="55.43" height="5.87" fill="#24285b"></rect><path d="M213,156.6s18,43.27,35.82,55.27L237,222.34S222,210.62,204.09,161.08Z" fill="#ffc107"></path><path d="M213,156.6s18,43.27,35.82,55.27L237,222.34S222,210.62,204.09,161.08Z" opacity="0.09"></path><path d="M173.89,116.42S184.09,96,178.3,72.13H213S202.53,95,210.33,116.42Z" fill="#24285b"></path><path d="M176.61,109.31h31.77s1.29,6.25,2,7.11H173.89Z" fill="#fff" opacity="0.17"></path><path d="M172.76,134.28s2,9.93,15.75,8.66,23.67-10.82,23.67-10.82,10.74,8.07,6,19.15-40.47,16.36-49.52-3.9C168.71,147.37,167.48,138.13,172.76,134.28Z" fill="#ffc107"></path><path d="M197.72,160.94s18.65,41,0,69.32L213,239.19s17.05-44.91-3.44-80.9Z" fill="#ffc107"></path><path d="M188.11,132.7l-4.21,17.9,11.21-14.54a4,4,0,0,0-3.55-6.42l-.19,0A3.93,3.93,0,0,0,188.11,132.7Z" fill="#ffd200"></path><circle cx="191.82" cy="171.11" r="2.81" fill="#24285b"></circle><circle cx="191.82" cy="189.68" r="2.81" fill="#24285b"></circle><circle cx="191.82" cy="209.15" r="2.81" fill="#24285b"></circle><circle cx="111.12" cy="76.69" r="4.6" fill="#fff"></circle><circle cx="321.36" cy="174.25" r="2.08" fill="#fff"></circle><circle cx="83.91" cy="172.31" r="3.51" fill="#fff"></circle><circle cx="156.96" cy="100.39" r="3.03" fill="#fff"></circle><circle cx="91.77" cy="113.51" r="1.51" fill="#fff"></circle><circle cx="158.47" cy="54.61" r="1.51" fill="#fff"></circle><circle cx="302.05" cy="119.36" r="3.03" fill="#fff"></circle><circle cx="272.6" cy="206.34" r="2.14" fill="#fff"></circle><circle cx="113.45" cy="208.48" r="2.14" fill="#fff"></circle><circle cx="239.34" cy="108.96" r="3.03" fill="#fff"></circle><circle cx="145.54" cy="171.47" r="3.03" fill="#fff"></circle><circle cx="264.99" cy="166.63" r="3.19" fill="#fff"></circle><circle cx="206.96" cy="48.04" r="4.6" fill="#fff"></circle><path d="M164.19,231.07s-25.5-5.58-48.33,3.83-36.11,6.35-49.39,15.54-2.59,15.83,42.37,16.34,117.59,0,117.59,0S218,244.9,164.19,231.07Z" fill="#ffc107"></path></svg>